<svg xmlns="http://www.w3.org/2000/svg" viewBox="0 0 115.85 80.65"><defs><style>.cls-1{fill:#010101;}</style></defs><title>Asset 2</title><g id="Layer_2" data-name="Layer 2"><g id="Layer_1-2" data-name="Layer 1"><path class="cls-1" d="M44.73,78l-9.48,2.63V64.56L0,74.36,44.73,0ZM35.25,34.17,20.4,58.85l14.85-4.13Z"/><polygon class="cls-1" points="49.47 60.6 49.47 0 58.95 0 58.95 48.13 115.85 32.3 115.85 42.15 49.47 60.6"/><path class="cls-1" d="M63.7,41.92V0H87.4V35.33ZM73.18,9.48v20l4.74-1.32V9.48Z"/><polygon class="cls-1" points="106.31 30.07 101.62 21.08 101.62 31.37 92.14 34.01 92.14 0 101.32 0 106.36 9.66 106.36 0 115.85 0 115.85 27.41 106.31 30.07"/></g></g></svg>